:version 1.10
:name ASF
:units
  mass 1
  length 1
  angle deg
:documentation
  ASF file generated by Kaydara
:root
  axis xyz
  order  tx ty tz rx ry rz
  position 0 0 0
  orientation 0 0 0
:bonedata
  begin
    id 1
    name SpineDummy
    direction 0.999998 -0.00179978 1.38929e-006
    length 3.60008
    axis 0 0 0 xyz
  end
  begin
    id 2
    name Spine
    direction 0.964365 0.262802 0.0305839
    length 8.13928
    axis 1.33928 -1.75354 15.2838 xyz
    dof rx ry rz
  end
  begin
    id 3
    name Spine1
    direction 0.811168 0.572065 0.12144
    length 7.14954
    axis 2.2224 -6.9761 35.2157 xyz
    dof rx ry rz
  end
  begin
    id 4
    name Neck
    direction 0 0 0
    length 0
    axis 2.2224 -6.9761 35.2157 xyz
    dof rx ry rz
  end
  begin
    id 5
    name HeadDummy
    direction 0.810939 0.572387 0.121455
    length 3.55534
    axis 2.2224 -6.9761 35.2157 xyz
  end
  begin
    id 6
    name Head
    direction 0.998226 -0.000232542 0.0595419
    length 7.35666
    axis -3.03688 -3.41352 -0.0133467 xyz
    dof rx ry rz
  end
  begin
    id 7
    name R_ClavicleDummy
    direction 0.531669 -0.194489 -0.824319
    length 2.49392
    axis 2.2224 -6.9761 35.2157 xyz
  end
  begin
    id 8
    name R_Clavicle
    direction -0.155119 0.0480802 -0.986725
    length 4.485
    axis -54.2764 80.6538 162.779 xyz
    dof rx ry rz
  end
  begin
    id 9
    name R_UpperArm
    direction -0.955567 0.200068 -0.216484
    length 10.1122
    axis -72.9943 12.5026 168.175 xyz
    dof rx ry rz
  end
  begin
    id 10
    name R_Forearm
    direction -0.61433 0.385743 0.688332
    length 9.39148
    axis -117.015 -43.4982 147.875 xyz
    dof rx ry rz
  end
  begin
    id 11
    name R_Hand
    direction -0.699429 0.0170333 0.714499
    length 3.66324
    axis -45.0303 -36.7097 175.478 xyz
    dof rx ry rz
  end
  begin
    id 12
    name L_ClavicleDummy
    direction 0.40287 -0.36502 0.839319
    length 2.49392
    axis 2.2224 -6.9761 35.2157 xyz
  end
  begin
    id 13
    name L_Clavicle
    direction -0.231271 -0.0726419 0.970174
    length 4.485
    axis 18.4357 -75.9711 -162.563 xyz
    dof rx ry rz
  end
  begin
    id 14
    name L_UpperArm
    direction -0.917494 0.144359 0.370629
    length 10.1122
    axis 56.0417 -21.7544 171.058 xyz
    dof rx ry rz
  end
  begin
    id 15
    name L_Forearm
    direction -0.496786 0.615074 -0.612281
    length 9.39148
    axis 89.8094 37.7546 128.927 xyz
    dof rx ry rz
  end
  begin
    id 16
    name L_Hand
    direction -0.409932 0.64962 -0.640274
    length 3.66324
    axis -0.424369 32.133 128.52 xyz
    dof rx ry rz
  end
  begin
    id 17
    name L_ThighDummy
    direction -1.84081e-006 1.87549e-006 1
    length 3.13049
    axis 0 0 0 xyz
  end
  begin
    id 18
    name L_Thigh
    direction -0.947739 0.307978 0.083308
    length 17.9961
    axis 173.219 -4.77873 161.998 xyz
    dof rx ry rz
  end
  begin
    id 19
    name L_Calf
    direction -0.728814 -0.684427 0.0197583
    length 13.3367
    axis 167.331 -1.13214 -136.799 xyz
    dof rx ry rz
  end
  begin
    id 20
    name L_Foot
    direction -0.9028 0.418719 0.0981191
    length 5.8674
    axis 163.436 11.5135 -155.37 xyz
    dof rx ry rz
  end
  begin
    id 21
    name L_Toe0
    direction -0.35341 0.886259 0.299411
    length 4.75286
    axis 169.316 -17.4222 111.74 xyz
    dof rx ry rz
  end
  begin
    id 22
    name R_ThighDummy
    direction 9.32778e-007 -8.82053e-007 -1
    length 3.13049
    axis 0 0 0 xyz
  end
  begin
    id 23
    name R_Thigh
    direction -0.925064 0.37528 -0.0585023
    length 17.9961
    axis -178.698 3.35385 157.919 xyz
    dof rx ry rz
  end
  begin
    id 24
    name R_Calf
    direction -0.68969 -0.718776 -0.0876886
    length 13.3367
    axis -160.504 5.03065 -133.817 xyz
    dof rx ry rz
  end
  begin
    id 25
    name R_Foot
    direction -0.857405 0.418858 -0.299022
    length 5.8674
    axis -161.328 4.38911 -154.413 xyz
    dof rx ry rz
  end
  begin
    id 26
    name R_Toe0
    direction -0.100745 0.952789 -0.286433
    length 4.75286
    axis 171.683 16.6445 96.0359 xyz
    dof rx ry rz
  end
:hierarchy
  begin
    root SpineDummy L_ThighDummy R_ThighDummy
    SpineDummy Spine
    Spine Spine1
    Spine1 Neck
    Neck HeadDummy R_ClavicleDummy L_ClavicleDummy
    HeadDummy Head
    R_ClavicleDummy R_Clavicle
    R_Clavicle R_UpperArm
    R_UpperArm R_Forearm
    R_Forearm R_Hand
    L_ClavicleDummy L_Clavicle
    L_Clavicle L_UpperArm
    L_UpperArm L_Forearm
    L_Forearm L_Hand
    L_ThighDummy L_Thigh
    L_Thigh L_Calf
    L_Calf L_Foot
    L_Foot L_Toe0
    R_ThighDummy R_Thigh
    R_Thigh R_Calf
    R_Calf R_Foot
    R_Foot R_Toe0
  end

:SAMPLES-PER-SECOND 30
:FULLY-SPECIFIED
:DEGREES
274
root  15.4646 34.5737 17.0686 -42.426 6.47372 92.8987
Spine  3.69644 6.75834 -11.2093
Spine1  3.53442 -12.957 -7.06893
Neck  3.97569e-016 0 -2.38542e-015
Head  -39.7123 3.68546 12.2883
R_Clavicle  0.122752 -3.2222 0.373345
R_UpperArm  -1.90004 -9.66846 1.17355
R_Forearm  8.08916 -1.98911 1.62755
R_Hand  0.251447 3.74467 -4.62637
L_Clavicle  -0.22055 11.3131 -2.29704
L_UpperArm  -11.5557 25.3301 42.0728
L_Forearm  5.92308 34.2392 39.1801
L_Hand  0.196819 4.73272 2.3627
L_Thigh  -8.90914 11.5651 -3.28775
L_Calf  4.62363 -4.45866 31.8951
L_Foot  -1.14332 1.84502 -7.32444
L_Toe0  0.505156 0.034446 -6.1361
R_Thigh  0.750498 -15.9958 -18.8974
R_Calf  2.98304 7.86571 25.281
R_Foot  1.36666 -10.9755 -21.7452
R_Toe0  -1.94581 -0.264059 -17.4185
275
root  16.7001 34.3764 16.3041 -45.0799 6.45518 91.9171
Spine  2.7763 4.78112 -10.3245
Spine1  2.86416 -10.2395 -8.0829
Neck  3.97569e-016 0 -2.38542e-015
Head  -36.6669 4.12768 10.5996
R_Clavicle  0.198998 -6.29237 0.587397
R_UpperArm  -2.03353 -9.44309 9.9455
R_Forearm  8.75574 -1.78531 1.45886
R_Hand  0.257475 3.76784 -4.60227
L_Clavicle  -0.260527 11.999 -2.118
L_UpperArm  -6.20812 21.9999 43.0623
L_Forearm  -2.53806 28.2873 35.7468
L_Hand  0.0102624 3.77564 0.274327
L_Thigh  -2.62769 9.63293 -5.62569
L_Calf  10.6902 -3.98854 30.6176
L_Foot  -1.91008 -5.03983 -4.24864
L_Toe0  0.36358 0.048535 -6.26134
R_Thigh  1.84861 -16.4682 -16.2616
R_Calf  7.7432 8.65304 28.1027
R_Foot  1.17681 -11.173 -20.9337
R_Toe0  -0.542197 -0.324446 -16.5701
276
root  18.0072 33.7221 15.5738 -47.6725 6.97793 91.4454
Spine  2.05722 3.6138 -11.1772
Spine1  2.25316 -8.50582 -7.21018
Neck  3.97569e-016 0 -2.38542e-015
Head  -33.9527 4.2647 8.89308
R_Clavicle  0.27699 -8.78548 0.956214
R_UpperArm  1.30918 -8.40084 18.6338
R_Forearm  10.0913 -1.8208 1.48953
R_Hand  0.195901 3.7918 -5.2864
L_Clavicle  -0.285006 12.6048 -2.26208
L_UpperArm  -9.00855 17.9548 43.6834
L_Forearm  -4.88881 24.0649 31.2995
L_Hand  -0.138835 3.26928 -1.6705
L_Thigh  2.28096 7.58405 -6.66783
L_Calf  14.3615 -3.76399 28.3805
L_Foot  -2.02042 -6.90267 -2.16602
L_Toe0  1.82464 -0.0947729 -5.06556
R_Thigh  3.88153 -16.7895 -12.0413
R_Calf  12.9354 8.64517 28.1035
R_Foot  0.690704 -11.2894 -18.7102
R_Toe0  6.5932 -0.908439 -12.2689
277
root  19.3026 32.5896 14.7004 -50.6585 6.86258 90.5496
Spine  1.78505 2.64349 -12.5645
Spine1  1.93555 -6.93478 -4.96029
Neck  3.97569e-016 0 -2.38542e-015
Head  -31.4324 3.67241 7.52536
R_Clavicle  0.315707 -10.5737 1.14295
R_UpperArm  6.12324 -6.67675 27.8409
R_Forearm  11.9664 -0.244712 0.179511
R_Hand  0.133846 3.52808 -5.56711
L_Clavicle  -0.291127 12.589 -2.03209
L_UpperArm  -15.4982 14.0133 43.2395
L_Forearm  -5.2539 20.8214 26.045
L_Hand  -0.23472 3.49607 -2.81506
L_Thigh  3.9152 6.75224 -9.19838
L_Calf  11.9317 -3.61224 27.1739
L_Foot  -0.237826 -3.4601 3.48694
L_Toe0  6.21632 -0.552859 -0.273647
R_Thigh  6.18493 -16.54 -8.26695
R_Calf  16.3117 7.34948 23.6282
R_Foot  0.162182 -6.11549 -10.7475
R_Toe0  8.82358 -1.47951 -10.9652
278
root  20.5398 31.1962 13.582 -53.1459 4.53184 89.1578
Spine  1.58717 1.57007 -12.3746
Spine1  1.69831 -3.76976 -2.67554
Neck  3.97569e-016 0 -2.38542e-015
Head  -28.9709 2.72303 6.53856
R_Clavicle  0.34805 -12.2687 1.32935
R_UpperArm  9.02098 -3.72148 37.555
R_Forearm  15.1502 3.86376 -3.24175
R_Hand  0.10295 2.74445 -4.70809
L_Clavicle  -0.332668 12.4083 -0.490505
L_UpperArm  -20.6993 9.56503 41.6188
L_Forearm  -6.93517 16.802 20.401
L_Hand  -0.264936 4.00277 -3.00569
L_Thigh  5.38621 8.69311 -13.2856
L_Calf  5.03345 -3.41064 25.5158
L_Foot  1.25557 -3.3394 12.1676
L_Toe0  1.95088 -0.209636 -0.436813
R_Thigh  8.03491 -14.7189 -8.53033
R_Calf  16.4832 5.28168 16.8427
R_Foot  1.44196 5.61153 3.63295
R_Toe0  0.943622 -0.267811 -15.7509
